# xmcd
# Track frame offsets:
# 150
# 18582
# 36677
# 58047
# 87120
# 104022
# 128530
# 167695
# 198135
# 237282
# 261212
#
# Disc length: 3784 seconds
# Revision: 2
# Processed by: cddbd v1.5.2PL0 Copyright (c) Steve Scherf et al.
# Submitted via: VisiTrax 2.10.3.257 - For more info visit www.synapsa.com
#
DISCID=930ec60b
DTITLE=Various Artist - Warren Haynes Presents The Benefit Concert Vol
DTITLE=1 - Disc 2
DYEAR=2007
DGENRE=Blues
TTITLE0=Susan Tedeschi - Angel From Montgomery
TTITLE1=Cry of Love - Pretty As You Please
TTITLE2=Cry of Love - Peace Pipe
TTITLE3=Gov't Mule - Mule
TTITLE4=Gov't Mule - Bad Little Doggie
TTITLE5=Gov't Mule w/Johnny Neel - Lay Your Burden Down
TTITLE6=Gov't Mule w/Johnny Neel - Fallen Down
TTITLE7=Gov't Mule w/Johnny Neel and Jimmy Herring - Devil Likes It Slow
TTITLE8=Gov't Mule w/Col. Bruce Hampton, Johnny Neel and Mike Barnes - Spoonful
TTITLE9=Gov't Mule w/Little Milton and Johnny Neel - When The Blues Come Knockin
TTITLE9='
TTITLE10=Gov't Mule w/Larry McCray, Derek Trucks, Jason Patterson, Yonrico Scot
TTITLE10=t, and Johnny Neel - It Hurts Me Too
EXTD=Produced by Warren Haynes. Recorded live at Warren Haynes' 11th Annua
EXTD=l Christmas Jam in Asheville, NC at the Thomas Wolfe Auditorium on Dec
EXTD=ember 22nd, 1999. EVIL TEEN 651751-1201-2-9.
EXTT0=
EXTT1=
EXTT2=
EXTT3=
EXTT4=
EXTT5=
EXTT6=
EXTT7=
EXTT8=
EXTT9=
EXTT10=
PLAYORDER=
